<?xml version="1.0" encoding="UTF-8"?> <svg xmlns="http://www.w3.org/2000/svg" width="618" height="616" viewBox="0 0 618 616" fill="none"><path d="M409.66 410.665C409.66 522.961 318.509 613.999 206.063 613.999C93.6173 613.999 2.46631 522.961 2.46631 410.665C2.46631 298.37 93.6173 207.332 206.063 207.332C318.509 207.332 409.66 298.37 409.66 410.665Z" fill="#C28B00" fill-opacity="0.3" stroke="#C28B00" stroke-width="4"></path><path d="M615.257 410.665C615.257 522.961 524.106 613.999 411.66 613.999C299.214 613.999 208.063 522.961 208.063 410.665C208.063 298.37 299.214 207.332 411.66 207.332C524.106 207.332 615.257 298.37 615.257 410.665Z" fill="#C28B00" fill-opacity="0.3" stroke="#C28B00" stroke-width="4"></path><path d="M513.08 205.333C513.08 317.629 421.929 408.667 309.484 408.667C197.038 408.667 105.887 317.629 105.887 205.333C105.887 93.0378 197.038 2 309.484 2C421.929 2 513.08 93.0378 513.08 205.333Z" fill="#C28B00" fill-opacity="0.3" stroke="#C28B00" stroke-width="4"></path><path fill-rule="evenodd" clip-rule="evenodd" d="M211.001 381.055C214.934 359.075 221.53 288.63 309.404 236C312.948 239.514 390.229 276.164 407 381.847C404.901 383.706 315.068 438.012 211.001 381.055Z" fill="#C28B00"></path><mask id="mask0" maskUnits="userSpaceOnUse" x="212" y="237" width="194" height="171"><path fill-rule="evenodd" clip-rule="evenodd" d="M212.171 381.638C216.05 359.747 222.553 289.588 309.205 237.172C312.699 240.671 388.905 277.173 405.442 382.427C403.372 384.278 314.79 438.363 212.171 381.638Z" fill="white"></path></mask><g mask="url(#mask0)"> </g><path fill-rule="evenodd" clip-rule="evenodd" d="M220.001 377.875C223.573 357.438 229.563 291.937 309.367 243C312.586 246.267 382.769 280.345 398 378.612C396.093 380.341 314.511 430.835 220.001 377.875Z" fill="#C28B00"></path><path fill-rule="evenodd" clip-rule="evenodd" d="M328.051 293.301H323.26V321.834H328.051V311.566C329.516 313.521 331.696 315.278 335.177 315.278C340.132 315.278 344.879 311.327 344.879 304.343V304.264C344.879 297.242 340.088 293.31 335.177 293.31C331.772 293.31 329.595 295.086 328.051 297.28V293.301ZM340.009 304.254V304.334C340.009 308.483 337.281 311.078 334.031 311.078C330.781 311.078 327.934 308.365 327.934 304.334V304.254C327.934 300.224 330.785 297.51 334.031 297.51C337.278 297.51 340.009 300.185 340.009 304.254Z" fill="white"></path><path fill-rule="evenodd" clip-rule="evenodd" d="M297.691 304.336V304.416C297.691 310.413 302.392 315.33 308.754 315.33C315.198 315.33 319.934 310.333 319.934 304.336V304.256C319.934 298.218 315.239 293.301 308.833 293.301C302.427 293.301 297.691 298.298 297.691 304.336ZM314.98 304.189V304.269H314.977C314.977 307.889 312.54 310.911 308.691 310.899C304.997 310.899 302.361 307.851 302.361 304.189V304.109C302.361 300.448 304.798 297.425 308.612 297.425C312.347 297.425 314.98 300.489 314.98 304.189Z" fill="white"></path><path d="M284.492 309.134V284.805H289.276V308.371C289.276 310.251 290.539 310.768 292.167 310.768C293.241 310.752 294.296 310.486 295.251 309.989L296.652 314.245C295.466 314.925 292.947 315.331 291.129 315.331C287.61 315.334 284.492 313.773 284.492 309.134V309.134Z" fill="white"></path><path d="M278.879 301.943C278.879 301.943 281.538 301.962 282.129 301.978C286.012 302.067 292.538 302.297 297.622 296.658C299.399 294.69 300.402 292.611 301.145 290.062C301.673 288.244 302.062 285.483 302.065 281.005H304.863L299.88 275.152L294.897 281.005H297.695C297.695 287.447 296.513 291.462 294.097 293.762C292.035 295.733 285.361 297.56 278.879 297.535" fill="black"></path><path d="M278.879 299.456C279.113 299.478 281.54 299.491 282.132 299.491C287.705 299.491 291.759 298.188 294.591 295.492C296.509 293.662 297.604 291.451 298.335 288.901C298.984 286.629 299.253 284.325 299.256 279.851H302.057L297.069 274L292.082 279.848H294.883C294.883 286.285 293.699 290.297 291.281 292.595C289.218 294.564 285.366 295.288 278.879 295.269" fill="white"></path><path d="M263.738 329.32H269.688V342.614C269.688 343.997 270.096 345.119 270.912 345.98C271.751 346.819 272.941 347.238 274.482 347.238C276.001 347.238 277.168 346.819 277.984 345.98C278.823 345.119 279.242 343.997 279.242 342.614V329.32H285.158V342.784C285.158 345.708 284.252 348.043 282.438 349.788C280.648 351.534 277.996 352.406 274.482 352.406C270.946 352.406 268.272 351.534 266.458 349.788C264.645 348.043 263.738 345.72 263.738 342.818V329.32Z" fill="white"></path><path d="M289.238 329.32H295.086V351.998H289.238V329.32Z" fill="white"></path><path d="M307.865 329.32H313.815V342.614C313.815 343.997 314.223 345.119 315.039 345.98C315.878 346.819 317.068 347.238 318.609 347.238C320.128 347.238 321.295 346.819 322.111 345.98C322.95 345.119 323.369 343.997 323.369 342.614V329.32H329.285V342.784C329.285 345.708 328.379 348.043 326.565 349.788C324.775 351.534 322.123 352.406 318.609 352.406C315.073 352.406 312.399 351.534 310.585 349.788C308.772 348.043 307.865 345.72 307.865 342.818V329.32Z" fill="white"></path><path d="M342.817 344.382L337.887 351.998H330.951L338.873 340.37L331.461 329.32H338.363L342.817 336.426L347.203 329.32H354.139L346.761 340.336L354.649 351.998H347.747L342.817 344.382Z" fill="white"></path><path d="M247.535 358.32H257.055C259.435 358.32 261.554 358.785 263.413 359.714C265.272 360.621 266.722 361.924 267.765 363.624C268.808 365.324 269.329 367.33 269.329 369.642C269.329 371.954 268.808 373.972 267.765 375.694C266.722 377.394 265.272 378.709 263.413 379.638C261.554 380.545 259.446 380.998 257.089 380.998H247.535V358.32ZM257.055 375.898C258.347 375.898 259.469 375.615 260.421 375.048C261.373 374.482 262.098 373.722 262.597 372.77C263.096 371.818 263.345 370.776 263.345 369.642C263.345 367.806 262.801 366.31 261.713 365.154C260.625 363.998 259.084 363.42 257.089 363.42H253.383V375.898H257.055Z" fill="white"></path><path d="M272.238 358.32H288.864V363.42H278.086V366.956H288.626V372.056H278.086V375.898H288.864V380.998H272.238V358.32Z" fill="white"></path><path d="M293.722 373.416C294.606 374.3 295.671 375.026 296.918 375.592C298.164 376.136 299.513 376.408 300.964 376.408C301.961 376.408 302.743 376.238 303.31 375.898C303.899 375.536 304.194 375.082 304.194 374.538C304.194 373.994 303.888 373.598 303.276 373.348C302.664 373.076 301.678 372.804 300.318 372.532C298.527 372.17 297.031 371.784 295.83 371.376C294.628 370.946 293.574 370.243 292.668 369.268C291.784 368.271 291.342 366.911 291.342 365.188C291.342 363.896 291.693 362.706 292.396 361.618C293.121 360.508 294.164 359.624 295.524 358.966C296.906 358.309 298.527 357.98 300.386 357.98C302.199 357.98 303.888 358.252 305.452 358.796C307.016 359.318 308.398 360.1 309.6 361.142L306.404 365.324C305.474 364.554 304.42 363.976 303.242 363.59C302.086 363.182 300.93 362.978 299.774 362.978C298.958 362.978 298.346 363.126 297.938 363.42C297.53 363.715 297.326 364.112 297.326 364.61C297.326 365.086 297.62 365.449 298.21 365.698C298.822 365.948 299.83 366.242 301.236 366.582C302.981 366.945 304.454 367.353 305.656 367.806C306.857 368.237 307.9 368.94 308.784 369.914C309.69 370.889 310.144 372.192 310.144 373.824C310.144 376.136 309.316 377.984 307.662 379.366C306.007 380.726 303.684 381.406 300.692 381.406C296.498 381.406 293.144 380.205 290.628 377.802L293.722 373.416Z" fill="white"></path><path d="M312.879 358.32H318.727V380.998H312.879V358.32Z" fill="white"></path><path d="M321.651 369.676C321.651 367.342 322.195 365.29 323.283 363.522C324.371 361.732 325.844 360.36 327.703 359.408C329.584 358.434 331.658 357.946 333.925 357.946C336.282 357.946 338.265 358.468 339.875 359.51C341.484 360.553 342.731 361.868 343.615 363.454L338.719 366.004C338.265 365.188 337.608 364.508 336.747 363.964C335.908 363.398 334.967 363.114 333.925 363.114C332.701 363.114 331.613 363.409 330.661 363.998C329.709 364.565 328.961 365.347 328.417 366.344C327.873 367.342 327.601 368.452 327.601 369.676C327.601 370.9 327.873 372.011 328.417 373.008C328.961 374.006 329.709 374.799 330.661 375.388C331.613 375.955 332.701 376.238 333.925 376.238C334.718 376.238 335.5 376.102 336.271 375.83C337.064 375.558 337.676 375.241 338.107 374.878V373.11H333.007V367.976H343.955V376.986C341.28 379.933 337.937 381.406 333.925 381.406C331.658 381.406 329.584 380.93 327.703 379.978C325.844 379.004 324.371 377.632 323.283 375.864C322.195 374.074 321.651 372.011 321.651 369.676Z" fill="white"></path><path d="M353.225 367.874V380.998H347.377V358.32H353.395L362.575 370.798V358.32H368.457V380.998H362.813L353.225 367.874Z" fill="white"></path><path d="M246.78 139.658H250.472V157H246.78V139.658Z" fill="white"></path><path d="M262.313 149.408C262.313 148.576 262.114 147.978 261.715 147.614C261.316 147.25 260.744 147.068 259.999 147.068C259.392 147.068 258.838 147.215 258.335 147.51C257.85 147.787 257.451 148.134 257.139 148.55V157H253.837V144.442H257.139V146.08C257.59 145.543 258.196 145.083 258.959 144.702C259.722 144.321 260.58 144.13 261.533 144.13C262.885 144.13 263.899 144.485 264.575 145.196C265.268 145.907 265.615 146.886 265.615 148.134V157H262.313V149.408Z" fill="white"></path><path d="M273.106 157.312C271.944 157.312 271.06 157.017 270.454 156.428C269.847 155.839 269.544 154.989 269.544 153.88V147.328H267.464V144.442H269.544V141.01H272.872V144.442H275.42V147.328H272.872V152.996C272.872 153.395 272.976 153.724 273.184 153.984C273.392 154.244 273.669 154.374 274.016 154.374C274.258 154.374 274.484 154.339 274.692 154.27C274.9 154.201 275.056 154.114 275.16 154.01L275.862 156.506C275.255 157.043 274.336 157.312 273.106 157.312Z" fill="white"></path><path d="M276.873 150.708C276.873 149.495 277.15 148.394 277.705 147.406C278.26 146.401 279.031 145.603 280.019 145.014C281.007 144.425 282.125 144.13 283.373 144.13C284.604 144.13 285.696 144.425 286.649 145.014C287.602 145.586 288.339 146.401 288.859 147.458C289.396 148.498 289.665 149.694 289.665 151.046V151.774H280.331C280.435 152.606 280.808 153.299 281.449 153.854C282.09 154.409 282.922 154.686 283.945 154.686C284.552 154.686 285.158 154.573 285.765 154.348C286.389 154.123 286.9 153.819 287.299 153.438L288.755 155.57C288.148 156.125 287.386 156.558 286.467 156.87C285.548 157.165 284.586 157.312 283.581 157.312C282.316 157.312 281.172 157.043 280.149 156.506C279.126 155.951 278.32 155.18 277.731 154.192C277.159 153.187 276.873 152.025 276.873 150.708ZM283.373 146.756C282.437 146.756 281.709 147.042 281.189 147.614C280.669 148.169 280.366 148.81 280.279 149.538H286.467C286.415 148.827 286.129 148.186 285.609 147.614C285.106 147.042 284.361 146.756 283.373 146.756Z" fill="white"></path><path d="M292.05 144.442H295.352V146.158C295.803 145.586 296.392 145.109 297.12 144.728C297.848 144.347 298.593 144.156 299.356 144.156V147.38C299.044 147.311 298.741 147.276 298.446 147.276C297.891 147.276 297.302 147.415 296.678 147.692C296.054 147.969 295.612 148.307 295.352 148.706V157H292.05V144.442Z" fill="white"></path><path d="M308.959 155.7C308.526 156.203 307.954 156.601 307.243 156.896C306.55 157.173 305.796 157.312 304.981 157.312C304.27 157.312 303.577 157.156 302.901 156.844C302.242 156.532 301.696 156.064 301.263 155.44C300.83 154.799 300.613 154.036 300.613 153.152C300.613 152.233 300.83 151.479 301.263 150.89C301.696 150.283 302.242 149.841 302.901 149.564C303.56 149.287 304.253 149.148 304.981 149.148C305.83 149.148 306.602 149.278 307.295 149.538C307.988 149.798 308.543 150.179 308.959 150.682V148.94C308.959 148.299 308.708 147.787 308.205 147.406C307.702 147.025 307.035 146.834 306.203 146.834C304.834 146.834 303.612 147.328 302.537 148.316L301.289 146.106C302.034 145.447 302.875 144.953 303.811 144.624C304.764 144.295 305.752 144.13 306.775 144.13C308.387 144.13 309.704 144.503 310.727 145.248C311.75 145.993 312.261 147.207 312.261 148.888V157H308.959V155.7ZM308.959 152.424C308.699 152.077 308.326 151.809 307.841 151.618C307.373 151.427 306.862 151.332 306.307 151.332C305.631 151.332 305.068 151.505 304.617 151.852C304.166 152.181 303.941 152.641 303.941 153.23C303.941 153.802 304.166 154.253 304.617 154.582C305.068 154.911 305.631 155.076 306.307 155.076C306.862 155.076 307.373 154.981 307.841 154.79C308.326 154.599 308.699 154.331 308.959 153.984V152.424Z" fill="white"></path><path d="M314.73 150.708C314.73 149.443 315.016 148.316 315.588 147.328C316.16 146.323 316.949 145.543 317.954 144.988C318.96 144.416 320.104 144.13 321.386 144.13C322.565 144.13 323.57 144.347 324.402 144.78C325.234 145.196 325.884 145.733 326.352 146.392L324.194 148.42C323.588 147.519 322.704 147.068 321.542 147.068C320.537 147.068 319.714 147.406 319.072 148.082C318.448 148.741 318.136 149.616 318.136 150.708C318.136 151.8 318.448 152.684 319.072 153.36C319.714 154.036 320.537 154.374 321.542 154.374C322.097 154.374 322.6 154.261 323.05 154.036C323.501 153.793 323.882 153.455 324.194 153.022L326.352 155.024C325.884 155.683 325.234 156.229 324.402 156.662C323.588 157.095 322.582 157.312 321.386 157.312C320.104 157.312 318.96 157.035 317.954 156.48C316.949 155.908 316.16 155.128 315.588 154.14C315.016 153.135 314.73 151.991 314.73 150.708Z" fill="white"></path><path d="M332.723 157.312C331.562 157.312 330.678 157.017 330.071 156.428C329.464 155.839 329.161 154.989 329.161 153.88V147.328H327.081V144.442H329.161V141.01H332.489V144.442H335.037V147.328H332.489V152.996C332.489 153.395 332.593 153.724 332.801 153.984C333.009 154.244 333.286 154.374 333.633 154.374C333.876 154.374 334.101 154.339 334.309 154.27C334.517 154.201 334.673 154.114 334.777 154.01L335.479 156.506C334.872 157.043 333.954 157.312 332.723 157.312Z" fill="white"></path><path d="M338.934 143.09C338.397 143.09 337.929 142.899 337.53 142.518C337.149 142.119 336.958 141.651 336.958 141.114C336.958 140.577 337.149 140.117 337.53 139.736C337.929 139.355 338.397 139.164 338.934 139.164C339.489 139.164 339.957 139.355 340.338 139.736C340.719 140.117 340.91 140.577 340.91 141.114C340.91 141.651 340.719 142.119 340.338 142.518C339.957 142.899 339.489 143.09 338.934 143.09ZM337.296 144.442H340.598V157H337.296V144.442Z" fill="white"></path><path d="M342.078 144.442H345.614L348.89 153.178L352.166 144.442H355.728L350.684 157H347.122L342.078 144.442Z" fill="white"></path><path d="M356.396 150.708C356.396 149.495 356.674 148.394 357.228 147.406C357.783 146.401 358.554 145.603 359.542 145.014C360.53 144.425 361.648 144.13 362.896 144.13C364.127 144.13 365.219 144.425 366.172 145.014C367.126 145.586 367.862 146.401 368.382 147.458C368.92 148.498 369.188 149.694 369.188 151.046V151.774H359.854C359.958 152.606 360.331 153.299 360.972 153.854C361.614 154.409 362.446 154.686 363.468 154.686C364.075 154.686 364.682 154.573 365.288 154.348C365.912 154.123 366.424 153.819 366.822 153.438L368.278 155.57C367.672 156.125 366.909 156.558 365.99 156.87C365.072 157.165 364.11 157.312 363.104 157.312C361.839 157.312 360.695 157.043 359.672 156.506C358.65 155.951 357.844 155.18 357.254 154.192C356.682 153.187 356.396 152.025 356.396 150.708ZM362.896 146.756C361.96 146.756 361.232 147.042 360.712 147.614C360.192 148.169 359.889 148.81 359.802 149.538H365.99C365.938 148.827 365.652 148.186 365.132 147.614C364.63 147.042 363.884 146.756 362.896 146.756Z" fill="white"></path><path d="M268.083 169.658H274.921C276.724 169.658 278.318 170.022 279.705 170.75C281.092 171.461 282.175 172.475 282.955 173.792C283.735 175.109 284.125 176.626 284.125 178.342C284.125 180.058 283.735 181.575 282.955 182.892C282.175 184.192 281.092 185.206 279.705 185.934C278.318 186.645 276.724 187 274.921 187H268.083V169.658ZM274.921 183.75C276.03 183.75 276.992 183.507 277.807 183.022C278.639 182.537 279.272 181.887 279.705 181.072C280.138 180.24 280.355 179.33 280.355 178.342C280.355 176.747 279.878 175.447 278.925 174.442C277.972 173.419 276.637 172.908 274.921 172.908H271.775V183.75H274.921Z" fill="white"></path><path d="M285.861 180.708C285.861 179.495 286.138 178.394 286.693 177.406C287.248 176.401 288.019 175.603 289.007 175.014C289.995 174.425 291.113 174.13 292.361 174.13C293.592 174.13 294.684 174.425 295.637 175.014C296.59 175.586 297.327 176.401 297.847 177.458C298.384 178.498 298.653 179.694 298.653 181.046V181.774H289.319C289.423 182.606 289.796 183.299 290.437 183.854C291.078 184.409 291.91 184.686 292.933 184.686C293.54 184.686 294.146 184.573 294.753 184.348C295.377 184.123 295.888 183.819 296.287 183.438L297.743 185.57C297.136 186.125 296.374 186.558 295.455 186.87C294.536 187.165 293.574 187.312 292.569 187.312C291.304 187.312 290.16 187.043 289.137 186.506C288.114 185.951 287.308 185.18 286.719 184.192C286.147 183.187 285.861 182.025 285.861 180.708ZM292.361 176.756C291.425 176.756 290.697 177.042 290.177 177.614C289.657 178.169 289.354 178.81 289.267 179.538H295.455C295.403 178.827 295.117 178.186 294.597 177.614C294.094 177.042 293.349 176.756 292.361 176.756Z" fill="white"></path><path d="M301.376 183.048C301.862 183.499 302.52 183.897 303.352 184.244C304.184 184.591 304.973 184.764 305.718 184.764C306.412 184.764 306.932 184.643 307.278 184.4C307.642 184.157 307.824 183.828 307.824 183.412C307.824 183.031 307.616 182.753 307.2 182.58C306.802 182.389 306.169 182.216 305.302 182.06C304.297 181.869 303.465 181.661 302.806 181.436C302.148 181.193 301.576 180.812 301.09 180.292C300.605 179.755 300.362 179.018 300.362 178.082C300.362 177.371 300.562 176.713 300.96 176.106C301.376 175.499 301.974 175.023 302.754 174.676C303.534 174.312 304.453 174.13 305.51 174.13C307.452 174.13 309.142 174.702 310.58 175.846L309.254 178.108C308.856 177.692 308.318 177.345 307.642 177.068C306.984 176.791 306.282 176.652 305.536 176.652C304.947 176.652 304.47 176.773 304.106 177.016C303.742 177.241 303.56 177.536 303.56 177.9C303.56 178.229 303.742 178.472 304.106 178.628C304.47 178.784 305.086 178.949 305.952 179.122C306.94 179.313 307.772 179.529 308.448 179.772C309.142 180.015 309.74 180.422 310.242 180.994C310.745 181.549 310.996 182.311 310.996 183.282C310.996 184.045 310.78 184.738 310.346 185.362C309.93 185.969 309.306 186.445 308.474 186.792C307.66 187.139 306.689 187.312 305.562 187.312C304.47 187.312 303.422 187.139 302.416 186.792C301.428 186.445 300.605 185.969 299.946 185.362L301.376 183.048Z" fill="white"></path><path d="M315.067 173.09C314.53 173.09 314.062 172.899 313.663 172.518C313.282 172.119 313.091 171.651 313.091 171.114C313.091 170.577 313.282 170.117 313.663 169.736C314.062 169.355 314.53 169.164 315.067 169.164C315.622 169.164 316.089 169.355 316.471 169.736C316.852 170.117 317.043 170.577 317.043 171.114C317.043 171.651 316.852 172.119 316.471 172.518C316.089 172.899 315.622 173.09 315.067 173.09ZM313.429 174.442H316.731V187H313.429V174.442Z" fill="white"></path><path d="M321.227 187.832C322.163 188.872 323.472 189.392 325.153 189.392C326.089 189.392 326.895 189.141 327.571 188.638C328.264 188.153 328.611 187.347 328.611 186.22V184.946C328.108 185.57 327.528 186.055 326.869 186.402C326.21 186.749 325.5 186.922 324.737 186.922C323.68 186.922 322.726 186.679 321.877 186.194C321.045 185.691 320.386 184.963 319.901 184.01C319.433 183.039 319.199 181.878 319.199 180.526C319.199 179.191 319.433 178.047 319.901 177.094C320.386 176.123 321.045 175.387 321.877 174.884C322.709 174.381 323.662 174.13 324.737 174.13C325.5 174.13 326.21 174.295 326.869 174.624C327.528 174.953 328.108 175.43 328.611 176.054V174.442H331.939V186.142C331.939 188.309 331.272 189.843 329.937 190.744C328.62 191.645 327.025 192.096 325.153 192.096C324.044 192.096 323.056 191.949 322.189 191.654C321.34 191.377 320.525 190.9 319.745 190.224L321.227 187.832ZM328.611 178.498C328.334 178.082 327.926 177.744 327.389 177.484C326.869 177.207 326.332 177.068 325.777 177.068C324.824 177.068 324.052 177.38 323.463 178.004C322.891 178.628 322.605 179.469 322.605 180.526C322.605 181.583 322.891 182.424 323.463 183.048C324.052 183.672 324.824 183.984 325.777 183.984C326.314 183.984 326.852 183.845 327.389 183.568C327.926 183.291 328.334 182.953 328.611 182.554V178.498Z" fill="white"></path><path d="M343.69 179.408C343.69 178.576 343.491 177.978 343.092 177.614C342.693 177.25 342.121 177.068 341.376 177.068C340.769 177.068 340.215 177.215 339.712 177.51C339.227 177.787 338.828 178.134 338.516 178.55V187H335.214V174.442H338.516V176.08C338.967 175.543 339.573 175.083 340.336 174.702C341.099 174.321 341.957 174.13 342.91 174.13C344.262 174.13 345.276 174.485 345.952 175.196C346.645 175.907 346.992 176.886 346.992 178.134V187H343.69V179.408Z" fill="white"></path><path d="M85.9419 423.838H83.2379V430H79.5459V412.658H87.6579C88.8366 412.658 89.8679 412.901 90.7519 413.386C91.6359 413.854 92.3119 414.513 92.7799 415.362C93.2479 416.211 93.4819 417.173 93.4819 418.248C93.4819 419.669 93.1092 420.822 92.3639 421.706C91.6359 422.59 90.7432 423.153 89.6859 423.396L93.5859 430H89.3479L85.9419 423.838ZM89.7119 418.248C89.7119 417.537 89.4692 416.974 88.9839 416.558C88.4986 416.125 87.8746 415.908 87.1119 415.908H83.2379V420.588H87.1119C87.8746 420.588 88.4986 420.38 88.9839 419.964C89.4692 419.531 89.7119 418.959 89.7119 418.248Z" fill="white"></path><path d="M97.8129 416.09C97.2756 416.09 96.8076 415.899 96.4089 415.518C96.0276 415.119 95.8369 414.651 95.8369 414.114C95.8369 413.577 96.0276 413.117 96.4089 412.736C96.8076 412.355 97.2756 412.164 97.8129 412.164C98.3676 412.164 98.8356 412.355 99.2169 412.736C99.5983 413.117 99.7889 413.577 99.7889 414.114C99.7889 414.651 99.5983 415.119 99.2169 415.518C98.8356 415.899 98.3676 416.09 97.8129 416.09ZM96.1749 417.442H99.4769V430H96.1749V417.442Z" fill="white"></path><path d="M101.945 423.708C101.945 422.443 102.231 421.316 102.803 420.328C103.375 419.323 104.164 418.543 105.169 417.988C106.174 417.416 107.318 417.13 108.601 417.13C109.78 417.13 110.785 417.347 111.617 417.78C112.449 418.196 113.099 418.733 113.567 419.392L111.409 421.42C110.802 420.519 109.918 420.068 108.757 420.068C107.752 420.068 106.928 420.406 106.287 421.082C105.663 421.741 105.351 422.616 105.351 423.708C105.351 424.8 105.663 425.684 106.287 426.36C106.928 427.036 107.752 427.374 108.757 427.374C109.312 427.374 109.814 427.261 110.265 427.036C110.716 426.793 111.097 426.455 111.409 426.022L113.567 428.024C113.099 428.683 112.449 429.229 111.617 429.662C110.802 430.095 109.797 430.312 108.601 430.312C107.318 430.312 106.174 430.035 105.169 429.48C104.164 428.908 103.375 428.128 102.803 427.14C102.231 426.135 101.945 424.991 101.945 423.708Z" fill="white"></path><path d="M124.228 422.356C124.228 421.524 124.028 420.935 123.63 420.588C123.231 420.241 122.65 420.068 121.888 420.068C121.298 420.068 120.752 420.215 120.25 420.51C119.747 420.787 119.34 421.134 119.028 421.55V430H115.726V412.658H119.028V419.08C119.478 418.543 120.085 418.083 120.848 417.702C121.628 417.321 122.494 417.13 123.448 417.13C124.8 417.13 125.814 417.477 126.49 418.17C127.183 418.863 127.53 419.834 127.53 421.082V430H124.228V422.356Z" fill="white"></path><path d="M39.9365 442.658H52.2085V445.908H43.6285V449.574H52.0265V452.824H43.6285V456.75H52.2085V460H39.9365V442.658Z" fill="white"></path><path d="M59.9307 455.762L57.0447 460H53.3787L57.8247 453.552L53.6387 447.442H57.3307L59.9307 451.316L62.5047 447.442H66.1967L61.9847 453.552L66.4827 460H62.7907L59.9307 455.762Z" fill="white"></path><path d="M68.1183 464.784V447.442H71.4203V449.028C71.9056 448.421 72.4776 447.953 73.1363 447.624C73.8123 447.295 74.5316 447.13 75.2943 447.13C76.369 447.13 77.3223 447.39 78.1543 447.91C79.0036 448.43 79.6623 449.184 80.1303 450.172C80.6156 451.16 80.8583 452.339 80.8583 453.708C80.8583 455.077 80.6156 456.265 80.1303 457.27C79.6623 458.258 79.0036 459.012 78.1543 459.532C77.3223 460.052 76.369 460.312 75.2943 460.312C74.5316 460.312 73.821 460.156 73.1623 459.844C72.5036 459.515 71.923 459.029 71.4203 458.388V464.784H68.1183ZM77.4263 453.708C77.4263 452.633 77.1316 451.758 76.5423 451.082C75.9703 450.406 75.2076 450.068 74.2543 450.068C73.717 450.068 73.1796 450.207 72.6423 450.484C72.105 450.761 71.6976 451.099 71.4203 451.498V455.944C71.6976 456.343 72.105 456.681 72.6423 456.958C73.197 457.235 73.7343 457.374 74.2543 457.374C75.2076 457.374 75.9703 457.036 76.5423 456.36C77.1316 455.684 77.4263 454.8 77.4263 453.708Z" fill="white"></path><path d="M82.5213 453.708C82.5213 452.495 82.7986 451.394 83.3533 450.406C83.9079 449.401 84.6793 448.603 85.6673 448.014C86.6553 447.425 87.7733 447.13 89.0213 447.13C90.2519 447.13 91.3439 447.425 92.2973 448.014C93.2506 448.586 93.9873 449.401 94.5073 450.458C95.0446 451.498 95.3133 452.694 95.3133 454.046V454.774H85.9793C86.0833 455.606 86.4559 456.299 87.0973 456.854C87.7386 457.409 88.5706 457.686 89.5933 457.686C90.1999 457.686 90.8066 457.573 91.4133 457.348C92.0373 457.123 92.5486 456.819 92.9473 456.438L94.4033 458.57C93.7966 459.125 93.0339 459.558 92.1153 459.87C91.1966 460.165 90.2346 460.312 89.2293 460.312C87.9639 460.312 86.8199 460.043 85.7973 459.506C84.7746 458.951 83.9686 458.18 83.3793 457.192C82.8073 456.187 82.5213 455.025 82.5213 453.708ZM89.0213 449.756C88.0853 449.756 87.3573 450.042 86.8373 450.614C86.3173 451.169 86.0139 451.81 85.9273 452.538H92.1153C92.0633 451.827 91.7773 451.186 91.2573 450.614C90.7546 450.042 90.0093 449.756 89.0213 449.756Z" fill="white"></path><path d="M97.6984 447.442H101V449.158C101.451 448.586 102.04 448.109 102.768 447.728C103.496 447.347 104.242 447.156 105.004 447.156V450.38C104.692 450.311 104.389 450.276 104.094 450.276C103.54 450.276 102.95 450.415 102.326 450.692C101.702 450.969 101.26 451.307 101 451.706V460H97.6984V447.442Z" fill="white"></path><path d="M108.706 446.09C108.168 446.09 107.7 445.899 107.302 445.518C106.92 445.119 106.73 444.651 106.73 444.114C106.73 443.577 106.92 443.117 107.302 442.736C107.7 442.355 108.168 442.164 108.706 442.164C109.26 442.164 109.728 442.355 110.11 442.736C110.491 443.117 110.682 443.577 110.682 444.114C110.682 444.651 110.491 445.119 110.11 445.518C109.728 445.899 109.26 446.09 108.706 446.09ZM107.068 447.442H110.37V460H107.068V447.442Z" fill="white"></path><path d="M112.838 453.708C112.838 452.495 113.115 451.394 113.67 450.406C114.224 449.401 114.996 448.603 115.984 448.014C116.972 447.425 118.09 447.13 119.338 447.13C120.568 447.13 121.66 447.425 122.614 448.014C123.567 448.586 124.304 449.401 124.824 450.458C125.361 451.498 125.63 452.694 125.63 454.046V454.774H116.296C116.4 455.606 116.772 456.299 117.414 456.854C118.055 457.409 118.887 457.686 119.91 457.686C120.516 457.686 121.123 457.573 121.73 457.348C122.354 457.123 122.865 456.819 123.264 456.438L124.72 458.57C124.113 459.125 123.35 459.558 122.432 459.87C121.513 460.165 120.551 460.312 119.546 460.312C118.28 460.312 117.136 460.043 116.114 459.506C115.091 458.951 114.285 458.18 113.696 457.192C113.124 456.187 112.838 455.025 112.838 453.708ZM119.338 449.756C118.402 449.756 117.674 450.042 117.154 450.614C116.634 451.169 116.33 451.81 116.244 452.538H122.432C122.38 451.827 122.094 451.186 121.574 450.614C121.071 450.042 120.326 449.756 119.338 449.756Z" fill="white"></path><path d="M136.491 452.408C136.491 451.576 136.291 450.978 135.893 450.614C135.494 450.25 134.922 450.068 134.177 450.068C133.57 450.068 133.015 450.215 132.513 450.51C132.027 450.787 131.629 451.134 131.317 451.55V460H128.015V447.442H131.317V449.08C131.767 448.543 132.374 448.083 133.137 447.702C133.899 447.321 134.757 447.13 135.711 447.13C137.063 447.13 138.077 447.485 138.753 448.196C139.446 448.907 139.793 449.886 139.793 451.134V460H136.491V452.408Z" fill="white"></path><path d="M142.265 453.708C142.265 452.443 142.551 451.316 143.123 450.328C143.695 449.323 144.484 448.543 145.489 447.988C146.495 447.416 147.639 447.13 148.921 447.13C150.1 447.13 151.105 447.347 151.937 447.78C152.769 448.196 153.419 448.733 153.887 449.392L151.729 451.42C151.123 450.519 150.239 450.068 149.077 450.068C148.072 450.068 147.249 450.406 146.607 451.082C145.983 451.741 145.671 452.616 145.671 453.708C145.671 454.8 145.983 455.684 146.607 456.36C147.249 457.036 148.072 457.374 149.077 457.374C149.632 457.374 150.135 457.261 150.585 457.036C151.036 456.793 151.417 456.455 151.729 456.022L153.887 458.024C153.419 458.683 152.769 459.229 151.937 459.662C151.123 460.095 150.117 460.312 148.921 460.312C147.639 460.312 146.495 460.035 145.489 459.48C144.484 458.908 143.695 458.128 143.123 457.14C142.551 456.135 142.265 454.991 142.265 453.708Z" fill="white"></path><path d="M155.24 453.708C155.24 452.495 155.517 451.394 156.072 450.406C156.627 449.401 157.398 448.603 158.386 448.014C159.374 447.425 160.492 447.13 161.74 447.13C162.971 447.13 164.063 447.425 165.016 448.014C165.969 448.586 166.706 449.401 167.226 450.458C167.763 451.498 168.032 452.694 168.032 454.046V454.774H158.698C158.802 455.606 159.175 456.299 159.816 456.854C160.457 457.409 161.289 457.686 162.312 457.686C162.919 457.686 163.525 457.573 164.132 457.348C164.756 457.123 165.267 456.819 165.666 456.438L167.122 458.57C166.515 459.125 165.753 459.558 164.834 459.87C163.915 460.165 162.953 460.312 161.948 460.312C160.683 460.312 159.539 460.043 158.516 459.506C157.493 458.951 156.687 458.18 156.098 457.192C155.526 456.187 155.24 455.025 155.24 453.708ZM161.74 449.756C160.804 449.756 160.076 450.042 159.556 450.614C159.036 451.169 158.733 451.81 158.646 452.538H164.834C164.782 451.827 164.496 451.186 163.976 450.614C163.473 450.042 162.728 449.756 161.74 449.756Z" fill="white"></path><path d="M454.276 421.342C454.276 419.626 454.666 418.092 455.446 416.74C456.226 415.371 457.301 414.305 458.67 413.542C460.057 412.762 461.608 412.372 463.324 412.372C465.058 412.372 466.609 412.762 467.978 413.542C469.365 414.305 470.448 415.371 471.228 416.74C472.008 418.092 472.398 419.626 472.398 421.342C472.398 423.058 472.008 424.601 471.228 425.97C470.448 427.322 469.365 428.388 467.978 429.168C466.609 429.931 465.058 430.312 463.324 430.312C461.608 430.312 460.057 429.931 458.67 429.168C457.301 428.388 456.226 427.322 455.446 425.97C454.666 424.601 454.276 423.058 454.276 421.342ZM468.602 421.342C468.602 420.267 468.386 419.297 467.952 418.43C467.519 417.563 466.895 416.887 466.08 416.402C465.283 415.899 464.364 415.648 463.324 415.648C462.284 415.648 461.366 415.899 460.568 416.402C459.771 416.887 459.156 417.563 458.722 418.43C458.289 419.297 458.072 420.267 458.072 421.342C458.072 422.417 458.289 423.387 458.722 424.254C459.156 425.121 459.771 425.805 460.568 426.308C461.366 426.793 462.284 427.036 463.324 427.036C464.364 427.036 465.283 426.793 466.08 426.308C466.895 425.805 467.519 425.121 467.952 424.254C468.386 423.387 468.602 422.417 468.602 421.342Z" fill="white"></path><path d="M474.911 434.784V417.442H478.213V419.028C478.699 418.421 479.271 417.953 479.929 417.624C480.605 417.295 481.325 417.13 482.087 417.13C483.162 417.13 484.115 417.39 484.947 417.91C485.797 418.43 486.455 419.184 486.923 420.172C487.409 421.16 487.651 422.339 487.651 423.708C487.651 425.077 487.409 426.265 486.923 427.27C486.455 428.258 485.797 429.012 484.947 429.532C484.115 430.052 483.162 430.312 482.087 430.312C481.325 430.312 480.614 430.156 479.955 429.844C479.297 429.515 478.716 429.029 478.213 428.388V434.784H474.911ZM484.219 423.708C484.219 422.633 483.925 421.758 483.335 421.082C482.763 420.406 482.001 420.068 481.047 420.068C480.51 420.068 479.973 420.207 479.435 420.484C478.898 420.761 478.491 421.099 478.213 421.498V425.944C478.491 426.343 478.898 426.681 479.435 426.958C479.99 427.235 480.527 427.374 481.047 427.374C482.001 427.374 482.763 427.036 483.335 426.36C483.925 425.684 484.219 424.8 484.219 423.708Z" fill="white"></path><path d="M494.332 430.312C493.171 430.312 492.287 430.017 491.68 429.428C491.074 428.839 490.77 427.989 490.77 426.88V420.328H488.69V417.442H490.77V414.01H494.098V417.442H496.646V420.328H494.098V425.996C494.098 426.395 494.202 426.724 494.41 426.984C494.618 427.244 494.896 427.374 495.242 427.374C495.485 427.374 495.71 427.339 495.918 427.27C496.126 427.201 496.282 427.114 496.386 427.01L497.088 429.506C496.482 430.043 495.563 430.312 494.332 430.312Z" fill="white"></path><path d="M500.543 416.09C500.006 416.09 499.538 415.899 499.139 415.518C498.758 415.119 498.567 414.651 498.567 414.114C498.567 413.577 498.758 413.117 499.139 412.736C499.538 412.355 500.006 412.164 500.543 412.164C501.098 412.164 501.566 412.355 501.947 412.736C502.329 413.117 502.519 413.577 502.519 414.114C502.519 414.651 502.329 415.119 501.947 415.518C501.566 415.899 501.098 416.09 500.543 416.09ZM498.905 417.442H502.207V430H498.905V417.442Z" fill="white"></path><path d="M521.056 422.07C521.056 421.446 520.9 420.961 520.588 420.614C520.293 420.25 519.825 420.068 519.184 420.068C518.646 420.068 518.144 420.215 517.676 420.51C517.225 420.805 516.861 421.143 516.584 421.524V430H513.256V422.07C513.256 421.446 513.1 420.961 512.788 420.614C512.493 420.25 512.025 420.068 511.384 420.068C510.864 420.068 510.37 420.215 509.902 420.51C509.434 420.805 509.061 421.151 508.784 421.55V430H505.482V417.442H508.784V419.08C509.096 418.629 509.642 418.196 510.422 417.78C511.202 417.347 512.025 417.13 512.892 417.13C513.793 417.13 514.538 417.329 515.128 417.728C515.717 418.127 516.133 418.69 516.376 419.418C516.774 418.794 517.364 418.257 518.144 417.806C518.941 417.355 519.79 417.13 520.692 417.13C521.87 417.13 522.78 417.451 523.422 418.092C524.063 418.716 524.384 419.661 524.384 420.926V430H521.056V422.07Z" fill="white"></path><path d="M529.26 416.09C528.723 416.09 528.255 415.899 527.856 415.518C527.475 415.119 527.284 414.651 527.284 414.114C527.284 413.577 527.475 413.117 527.856 412.736C528.255 412.355 528.723 412.164 529.26 412.164C529.815 412.164 530.283 412.355 530.664 412.736C531.045 413.117 531.236 413.577 531.236 414.114C531.236 414.651 531.045 415.119 530.664 415.518C530.283 415.899 529.815 416.09 529.26 416.09ZM527.622 417.442H530.924V430H527.622V417.442Z" fill="white"></path><path d="M533.652 427.53L539.32 420.328H533.652V417.442H543.792V419.834L538.046 427.114H543.896V430H533.652V427.53Z" fill="white"></path><path d="M545.834 423.708C545.834 422.495 546.111 421.394 546.666 420.406C547.22 419.401 547.992 418.603 548.98 418.014C549.968 417.425 551.086 417.13 552.334 417.13C553.564 417.13 554.656 417.425 555.61 418.014C556.563 418.586 557.3 419.401 557.82 420.458C558.357 421.498 558.626 422.694 558.626 424.046V424.774H549.292C549.396 425.606 549.768 426.299 550.41 426.854C551.051 427.409 551.883 427.686 552.906 427.686C553.512 427.686 554.119 427.573 554.726 427.348C555.35 427.123 555.861 426.819 556.26 426.438L557.716 428.57C557.109 429.125 556.346 429.558 555.428 429.87C554.509 430.165 553.547 430.312 552.542 430.312C551.276 430.312 550.132 430.043 549.11 429.506C548.087 428.951 547.281 428.18 546.692 427.192C546.12 426.187 545.834 425.025 545.834 423.708ZM552.334 419.756C551.398 419.756 550.67 420.042 550.15 420.614C549.63 421.169 549.326 421.81 549.24 422.538H555.428C555.376 421.827 555.09 421.186 554.57 420.614C554.067 420.042 553.322 419.756 552.334 419.756Z" fill="white"></path><path d="M569.643 428.388C569.157 429.012 568.577 429.489 567.901 429.818C567.242 430.147 566.532 430.312 565.769 430.312C564.712 430.312 563.758 430.052 562.909 429.532C562.06 429.012 561.392 428.258 560.907 427.27C560.439 426.282 560.205 425.103 560.205 423.734C560.205 422.399 560.439 421.238 560.907 420.25C561.392 419.245 562.051 418.473 562.883 417.936C563.732 417.399 564.694 417.13 565.769 417.13C566.514 417.13 567.225 417.295 567.901 417.624C568.577 417.953 569.157 418.43 569.643 419.054V412.658H572.971V430H569.643V428.388ZM569.643 421.498C569.365 421.082 568.958 420.744 568.421 420.484C567.884 420.207 567.338 420.068 566.783 420.068C565.847 420.068 565.084 420.406 564.495 421.082C563.906 421.758 563.611 422.642 563.611 423.734C563.611 424.809 563.906 425.684 564.495 426.36C565.084 427.036 565.847 427.374 566.783 427.374C567.338 427.374 567.884 427.244 568.421 426.984C568.958 426.707 569.365 426.36 569.643 425.944V421.498Z" fill="white"></path><path d="M469.695 442.658H473.387V456.75H480.719V460H469.695V442.658Z" fill="white"></path><path d="M490.589 458.7C490.156 459.203 489.584 459.601 488.873 459.896C488.18 460.173 487.426 460.312 486.611 460.312C485.9 460.312 485.207 460.156 484.531 459.844C483.872 459.532 483.326 459.064 482.893 458.44C482.46 457.799 482.243 457.036 482.243 456.152C482.243 455.233 482.46 454.479 482.893 453.89C483.326 453.283 483.872 452.841 484.531 452.564C485.19 452.287 485.883 452.148 486.611 452.148C487.46 452.148 488.232 452.278 488.925 452.538C489.618 452.798 490.173 453.179 490.589 453.682V451.94C490.589 451.299 490.338 450.787 489.835 450.406C489.332 450.025 488.665 449.834 487.833 449.834C486.464 449.834 485.242 450.328 484.167 451.316L482.919 449.106C483.664 448.447 484.505 447.953 485.441 447.624C486.394 447.295 487.382 447.13 488.405 447.13C490.017 447.13 491.334 447.503 492.357 448.248C493.38 448.993 493.891 450.207 493.891 451.888V460H490.589V458.7ZM490.589 455.424C490.329 455.077 489.956 454.809 489.471 454.618C489.003 454.427 488.492 454.332 487.937 454.332C487.261 454.332 486.698 454.505 486.247 454.852C485.796 455.181 485.571 455.641 485.571 456.23C485.571 456.802 485.796 457.253 486.247 457.582C486.698 457.911 487.261 458.076 487.937 458.076C488.492 458.076 489.003 457.981 489.471 457.79C489.956 457.599 490.329 457.331 490.589 456.984V455.424Z" fill="white"></path><path d="M497.218 461.95C497.53 462.089 497.877 462.158 498.258 462.158C498.709 462.158 499.073 462.089 499.35 461.95C499.627 461.811 499.844 461.577 500 461.248L500.468 460.182L495.372 447.442H498.908L502.184 456.178L505.46 447.442H509.022L503.12 462.054C502.687 463.163 502.08 463.935 501.3 464.368C500.52 464.819 499.541 465.061 498.362 465.096C498.119 465.096 497.833 465.079 497.504 465.044C497.175 465.009 496.915 464.966 496.724 464.914L497.218 461.95Z" fill="white"></path><path d="M516.32 460.312C514.986 460.312 513.816 460.017 512.81 459.428C511.805 458.839 511.034 458.041 510.496 457.036C509.959 456.031 509.69 454.921 509.69 453.708C509.69 452.512 509.959 451.411 510.496 450.406C511.034 449.401 511.805 448.603 512.81 448.014C513.816 447.425 514.986 447.13 516.32 447.13C517.672 447.13 518.851 447.425 519.856 448.014C520.862 448.603 521.633 449.401 522.17 450.406C522.708 451.411 522.976 452.512 522.976 453.708C522.976 454.921 522.708 456.031 522.17 457.036C521.633 458.041 520.862 458.839 519.856 459.428C518.851 460.017 517.672 460.312 516.32 460.312ZM516.32 457.374C517.308 457.374 518.088 457.027 518.66 456.334C519.25 455.623 519.544 454.748 519.544 453.708C519.544 452.685 519.25 451.827 518.66 451.134C518.088 450.423 517.308 450.068 516.32 450.068C515.332 450.068 514.552 450.423 513.98 451.134C513.408 451.827 513.122 452.685 513.122 453.708C513.122 454.748 513.408 455.623 513.98 456.334C514.552 457.027 515.332 457.374 516.32 457.374Z" fill="white"></path><path d="M533.902 458.414C533.417 458.951 532.793 459.402 532.03 459.766C531.285 460.13 530.435 460.312 529.482 460.312C528.13 460.312 527.116 459.965 526.44 459.272C525.764 458.579 525.426 457.608 525.426 456.36V447.442H528.728V455.06C528.728 455.892 528.927 456.49 529.326 456.854C529.725 457.201 530.297 457.374 531.042 457.374C531.631 457.374 532.177 457.235 532.68 456.958C533.183 456.681 533.59 456.343 533.902 455.944V447.442H537.204V460H533.902V458.414Z" fill="white"></path><path d="M544.695 460.312C543.533 460.312 542.649 460.017 542.043 459.428C541.436 458.839 541.133 457.989 541.133 456.88V450.328H539.053V447.442H541.133V444.01H544.461V447.442H547.009V450.328H544.461V455.996C544.461 456.395 544.565 456.724 544.773 456.984C544.981 457.244 545.258 457.374 545.605 457.374C545.847 457.374 546.073 457.339 546.281 457.27C546.489 457.201 546.645 457.114 546.749 457.01L547.451 459.506C546.844 460.043 545.925 460.312 544.695 460.312Z" fill="white"></path><path d="M549.606 456.048C550.091 456.499 550.75 456.897 551.582 457.244C552.414 457.591 553.202 457.764 553.948 457.764C554.641 457.764 555.161 457.643 555.508 457.4C555.872 457.157 556.054 456.828 556.054 456.412C556.054 456.031 555.846 455.753 555.43 455.58C555.031 455.389 554.398 455.216 553.532 455.06C552.526 454.869 551.694 454.661 551.036 454.436C550.377 454.193 549.805 453.812 549.32 453.292C548.834 452.755 548.592 452.018 548.592 451.082C548.592 450.371 548.791 449.713 549.19 449.106C549.606 448.499 550.204 448.023 550.984 447.676C551.764 447.312 552.682 447.13 553.74 447.13C555.681 447.13 557.371 447.702 558.81 448.846L557.484 451.108C557.085 450.692 556.548 450.345 555.872 450.068C555.213 449.791 554.511 449.652 553.766 449.652C553.176 449.652 552.7 449.773 552.336 450.016C551.972 450.241 551.79 450.536 551.79 450.9C551.79 451.229 551.972 451.472 552.336 451.628C552.7 451.784 553.315 451.949 554.182 452.122C555.17 452.313 556.002 452.529 556.678 452.772C557.371 453.015 557.969 453.422 558.472 453.994C558.974 454.549 559.226 455.311 559.226 456.282C559.226 457.045 559.009 457.738 558.576 458.362C558.16 458.969 557.536 459.445 556.704 459.792C555.889 460.139 554.918 460.312 553.792 460.312C552.7 460.312 551.651 460.139 550.646 459.792C549.658 459.445 548.834 458.969 548.176 458.362L549.606 456.048Z" fill="white"></path></svg> 